<?xml version="1.0" ?><svg id="Outline" viewBox="0 0 512 512" xmlns="http://www.w3.org/2000/svg"><defs><style>.cls-1{fill:#262626;}</style></defs><path class="cls-1" d="M344.91,152.55,255,242.46l-89.91-89.91a11.34,11.34,0,1,0-16,16L239,258.5l-84.91,84.91a11.34,11.34,0,0,0,16,16L255,274.54l84.91,84.91a11.34,11.34,0,0,0,16-16L271,258.5,361,168.59a11.34,11.34,0,1,0-16-16Z"/><path class="cls-1" d="M256,58.65c-108.38,0-196.56,88.18-196.56,196.56S147.62,451.77,256,451.77,452.56,363.6,452.56,255.21,364.38,58.65,256,58.65Zm0,370.45c-95.88,0-173.88-78-173.88-173.89S160.12,81.33,256,81.33s173.88,78,173.88,173.88S351.88,429.1,256,429.1Z"/></svg>