<svg width="160" height="160" viewBox="0 0 160 160" fill="none" xmlns="http://www.w3.org/2000/svg">
<path opacity="0.46" d="M80 160C124.183 160 160 124.183 160 80C160 35.8172 124.183 0 80 0C35.8172 0 0 35.8172 0 80C0 124.183 35.8172 160 80 160Z" fill="#F4FBFD"/>
<path d="M80.3758 114.268C80.2498 114.268 80.1238 114.394 79.9978 114.394C79.8718 114.394 79.7459 114.268 79.6199 114.268H80.3758Z" fill="#84DBFF"/>
<path d="M142.108 130.394C127.494 148.41 105.069 160 79.9979 160C54.9271 160 32.5019 148.41 17.8877 130.394C28.3444 116.41 44.3444 109.481 57.4467 106.079C56.4389 114.394 60.7223 125.481 60.8483 125.229C65.2578 115.15 79.9979 114.268 79.9979 114.268C79.9979 114.268 94.7381 115.15 99.0216 125.229C99.1475 125.481 103.557 114.394 102.423 106.079C115.651 109.481 131.777 116.41 142.108 130.394Z" fill="#1AB0CE" fill-opacity="0.6"/>
<path d="M98.0137 98.2684C98.0137 98.2684 98.0137 98.2684 98.0137 98.3944C98.0137 99.6542 97.3838 107.717 80.3759 114.142H79.62C62.6121 107.717 61.9822 99.6542 61.9822 98.3944C61.9822 98.2684 61.9822 98.2684 61.9822 98.2684C61.9822 96.6306 62.3601 94.9928 62.7381 93.355C67.6515 99.5282 73.5727 103.686 79.9979 103.686C86.4231 103.686 92.3444 99.5282 97.2578 93.355C97.6357 94.9928 98.0137 96.6306 98.0137 98.2684Z" fill="white"/>
<path d="M98.016 98.2677C98.016 98.2677 98.8979 107.339 80.0002 114.394C80.0002 114.394 94.7404 115.276 99.0238 125.354C99.2758 125.606 107.717 103.685 98.016 98.2677Z" fill="#1AB0CE" fill-opacity="0.3"/>
<path d="M61.9843 98.2681C52.2835 103.685 60.7245 125.607 60.9765 125.229C65.3859 115.15 80.0001 114.268 80.0001 114.268C61.1024 107.339 61.9843 98.2681 61.9843 98.2681Z" fill="#1AB0CE" fill-opacity="0.3"/>
<path d="M106.458 66.3941C105.324 74.2052 101.923 81.5122 96.2535 87.0555C95.1197 88.1894 94.1118 89.0713 92.8519 89.9532L90.8362 83.528H69.1669L67.1511 89.9532C63.1197 86.9296 54.6787 78.4886 54.5527 70.5516C51.0252 25.3233 85.6708 34.8981 85.6708 34.8981C108.978 33.2603 108.222 53.7957 106.458 66.3941Z" fill="white"/>
<path d="M104.694 80.2522C106.962 79.4963 109.355 77.4805 111.119 74.5829C113.891 69.9215 114.017 64.7561 111.245 62.9923C110.741 62.7404 110.237 62.4884 109.733 62.4884C109.355 64.3782 108.851 66.2679 108.347 68.1577L106.962 73.827V73.953C106.332 76.0947 105.576 78.2364 104.694 80.2522Z" fill="white"/>
<path d="M55.3078 80.2518C53.0401 79.4959 50.6464 77.4801 48.8826 74.5825C45.985 69.9211 45.985 64.7557 48.7566 63.1179C49.0086 62.9919 49.1346 62.866 49.3865 62.866C50.8984 68.7872 52.6621 73.1967 53.0401 74.0786C53.67 76.0943 54.4259 78.236 55.3078 80.2518Z" fill="white"/>
<path d="M93.7322 22.2986C94.7401 10.708 76.3464 11.4639 76.3464 11.4639C48.5038 15.4954 45.4802 41.4482 45.4802 41.4482L49.2598 36.9127C43.3385 49.8891 52.2834 72.1883 53.0393 73.9521C57.7007 89.4482 68.0314 103.684 79.9999 103.684C91.9684 103.684 102.299 89.4482 106.961 73.9521C106.961 73.9521 106.961 73.9521 106.961 73.8261C107.464 71.9364 107.968 70.0466 108.346 68.1568H108.22C110.74 58.0781 113.512 47.8734 113.512 47.8734C120.693 11.7159 93.7322 22.2986 93.7322 22.2986Z" fill="#E0C580"/>
<path d="M106.803 71.9216C105.669 79.7326 101.346 89.9499 96.3464 97.0283C95.2125 98.1621 91.9802 101.146 90.8464 102.028C90.8464 102.028 87.2286 105.184 84.3464 105.528C81.2201 105.902 79.2559 105.731 76.3464 104.528C72.824 103.072 69.3464 101.028 66.3464 98.0283C63.3464 95.0283 55.0237 84.142 54.8977 76.205C51.3701 30.9767 86.0158 40.5515 86.0158 40.5515C109.323 38.7877 108.567 59.3232 106.803 71.9216Z" fill="white"/>
</svg>
