<svg width="20" height="15" viewBox="0 0 20 15" fill="none" xmlns="http://www.w3.org/2000/svg">
<path d="M10 14C8.35987 14.0204 6.7367 13.6665 5.254 12.965C4.10469 12.4042 3.07265 11.6298 2.213 10.683C1.30243 9.70413 0.585467 8.56167 0.1 7.31601L0 7.00001L0.105 6.68401C0.590815 5.43944 1.30624 4.29728 2.214 3.31701C3.07334 2.37032 4.10504 1.59587 5.254 1.03501C6.73671 0.333598 8.35988 -0.0203796 10 9.39617e-06C11.6401 -0.0203444 13.2633 0.333631 14.746 1.03501C15.8953 1.59574 16.9274 2.3702 17.787 3.31701C18.6993 4.29456 19.4165 5.43737 19.9 6.68401L20 7.00001L19.895 7.31601C18.3262 11.3998 14.3742 14.0694 10 14ZM10 2.00001C6.59587 1.89334 3.47142 3.8751 2.117 7.00001C3.4712 10.1251 6.59579 12.107 10 12C13.4041 12.1064 16.5284 10.1247 17.883 7.00001C16.5304 3.87359 13.4047 1.89109 10 2.00001ZM10 10C8.55733 10.0096 7.30937 8.99737 7.02097 7.58378C6.73256 6.1702 7.48427 4.75003 8.81538 4.19367C10.1465 3.63731 11.6852 4.10014 12.4885 5.29852C13.2919 6.49689 13.1354 8.09609 12.115 9.11601C11.5563 9.68127 10.7948 9.99957 10 10Z" fill="#00A1AE"/>
</svg>
