<svg width="24" height="24" viewBox="0 0 24 24" fill="none" xmlns="http://www.w3.org/2000/svg">
<path d="M5.31891 14.5039L4.4835 17.6226L1.43011 17.6872C0.517594 15.9946 0 14.0582 0 12.0004C0 10.0105 0.483938 8.13399 1.34175 6.48169H1.34241L4.06078 6.98006L5.25159 9.68213C5.00236 10.4087 4.86652 11.1887 4.86652 12.0004C4.86661 12.8813 5.02617 13.7252 5.31891 14.5039Z" fill="#FBBB00"/>
<path d="M23.7895 9.75842C23.9273 10.4843 23.9991 11.234 23.9991 12.0002C23.9991 12.8593 23.9088 13.6973 23.7367 14.5057C23.1526 17.2565 21.6262 19.6584 19.5117 21.3582L19.511 21.3575L16.0871 21.1828L15.6025 18.1578C17.0056 17.3349 18.1021 16.0472 18.6797 14.5057H12.2629V9.75842H18.7733H23.7895Z" fill="#518EF8"/>
<path d="M19.5111 21.3572L19.5117 21.3578C17.4553 23.0108 14.8429 23.9998 11.9992 23.9998C7.42932 23.9998 3.45615 21.4455 1.42932 17.6866L5.31812 14.5034C6.33151 17.208 8.94052 19.1332 11.9992 19.1332C13.3139 19.1332 14.5456 18.7778 15.6025 18.1574L19.5111 21.3572Z" fill="#28B446"/>
<path d="M19.6605 2.76262L15.773 5.94525C14.6792 5.26153 13.3862 4.86656 12.0009 4.86656C8.87298 4.86656 6.21517 6.88017 5.25254 9.68175L1.34331 6.48131H1.34265C3.33981 2.63077 7.36309 0 12.0009 0C14.9125 0 17.5822 1.03716 19.6605 2.76262Z" fill="#F14336"/>
</svg>
