<?xml version="1.0" encoding="iso-8859-1"?>
<!-- Generator: Adobe Illustrator 17.1.0, SVG Export Plug-In . SVG Version: 6.00 Build 0)  -->
<!DOCTYPE svg PUBLIC "-//W3C//DTD SVG 1.1//EN" "http://www.w3.org/Graphics/SVG/1.1/DTD/svg11.dtd">
<svg version="1.1" id="Capa_1" xmlns="http://www.w3.org/2000/svg" xmlns:xlink="http://www.w3.org/1999/xlink" x="0px" y="0px"
	 viewBox="0 0 411.723 411.723" style="enable-background:new 0 0 411.723 411.723;" xml:space="preserve">
<path id="XMLID_303_" d="M70.326,354.964c13.183,12.903,20.675,30.154,21.096,48.576c0.101,4.417-3.398,8.08-7.815,8.181
	c-0.062,0.001-0.125,0.002-0.186,0.002c-4.334,0-7.895-3.462-7.995-7.817c-0.667-29.215-24.997-52.983-54.234-52.983
	c-0.579,0-1.154,0.012-1.727,0.03c-4.429,0.151-8.108-3.33-8.246-7.746s3.33-8.108,7.746-8.246c0.739-0.023,1.481-0.038,2.227-0.038
	C39.672,334.922,57.122,342.04,70.326,354.964z M13.271,71.201H211.27c4.418,0,8-3.582,8-8s-3.582-8-8-8H13.271
	c-4.418,0-8,3.582-8,8S8.853,71.201,13.271,71.201z M197.616,127.954c4.418,0,8-3.582,8-8s-3.582-8-8-8H13.271c-4.418,0-8,3.582-8,8
	s3.582,8,8,8H197.616z M335.513,79.876c4.418,0,8-3.582,8-8v-1.904c0-4.418-3.582-8-8-8s-8,3.582-8,8v1.904
	C327.513,76.295,331.094,79.876,335.513,79.876z M265.764,98.789c-4.418,0-8,3.582-8,8v1.905c0,4.418,3.582,8,8,8s8-3.582,8-8
	v-1.905C273.764,102.371,270.183,98.789,265.764,98.789z M11.214,176.708c0-4.418,3.582-8,8-8h263.936
	c5.091-5.122,11.489-8.616,18.471-10.134v-15.966c-5.089-1.144-9.853-3.372-13.993-6.54c-6.25,4.785-13.926,7.425-21.992,7.425
	c-19.985,0-36.244-16.259-36.244-36.245c0-13.219,7.032-25.045,18.109-31.406c-0.4-2.167-0.601-4.375-0.601-6.614
	c0-16.622,11.148-30.686,26.527-34.933C274.443,15.211,290.289,0,309.62,0s35.177,15.211,36.193,34.294
	c15.378,4.247,26.527,18.311,26.527,34.933c0,2.239-0.201,4.447-0.601,6.614c11.078,6.361,18.111,18.188,18.111,31.406
	c0,19.986-16.26,36.245-36.247,36.245c-8.065,0-15.741-2.64-21.991-7.425c-4.14,3.168-8.903,5.396-13.992,6.54v15.965
	c6.981,1.518,13.379,5.012,18.471,10.135h62.36c4.418,0,8,3.582,8,8s-3.582,8-8,8h-65.925c-2.425,0-4.719-1.1-6.237-2.99
	c-4.084-5.085-10.159-8.001-16.667-8.001c-6.51,0-12.587,2.917-16.671,8.001c-1.519,1.891-3.813,2.99-6.237,2.99h-267.5
	C14.795,184.708,11.214,181.126,11.214,176.708z M301.62,125.853V101.78c0-4.418,3.582-8,8-8s8,3.582,8,8v24.073
	c2.987-1.284,5.656-3.292,7.766-5.907c1.519-1.882,3.808-2.976,6.226-2.976c2.419,0,4.708,1.094,6.226,2.977
	c3.87,4.796,9.616,7.547,15.765,7.547c11.164,0,20.247-9.082,20.247-20.245c0-8.89-5.692-16.652-14.164-19.317
	c-2.154-0.677-3.922-2.234-4.867-4.285s-0.978-4.406-0.092-6.484c1.07-2.509,1.612-5.179,1.612-7.935
	c0-10.824-8.459-19.706-19.259-20.221c-2.287-0.109-4.418-1.193-5.853-2.977s-2.037-4.098-1.653-6.355
	c0.192-1.13,0.29-2.284,0.29-3.429c0-11.163-9.082-20.245-20.245-20.245s-20.245,9.082-20.245,20.245
	c0,1.149,0.097,2.303,0.289,3.427c0.385,2.257-0.216,4.572-1.651,6.356c-1.435,1.785-3.566,2.869-5.854,2.978
	c-10.799,0.515-19.258,9.397-19.258,20.221c0,2.757,0.542,5.426,1.612,7.934c0.886,2.078,0.853,4.433-0.092,6.484
	c-0.944,2.052-2.712,3.608-4.867,4.286c-8.47,2.664-14.161,10.427-14.161,19.317c0,11.163,9.082,20.245,20.244,20.245
	c6.149,0,11.896-2.75,15.765-7.547c1.519-1.882,3.808-2.977,6.226-2.977s4.707,1.094,6.226,2.976
	C295.963,122.561,298.632,124.568,301.62,125.853z M398.451,282.214H220.866c-4.418,0-8,3.582-8,8s3.582,8,8,8h177.585
	c4.418,0,8-3.582,8-8S402.87,282.214,398.451,282.214z M398.451,225.461H173.027c-4.418,0-8,3.582-8,8s3.582,8,8,8h225.424
	c4.418,0,8-3.582,8-8S402.87,225.461,398.451,225.461z M398.451,338.968H245.708c-4.418,0-8,3.582-8,8s3.582,8,8,8h152.743
	c4.418,0,8-3.582,8-8S402.87,338.968,398.451,338.968z M398.451,395.721H255.169c-4.418,0-8,3.582-8,8s3.582,8,8,8h143.282
	c4.418,0,8-3.582,8-8S402.87,395.721,398.451,395.721z M22.999,279.345c-1.35,0-2.692,0.028-4.032,0.07
	c-4.416,0.137-7.885,3.828-7.748,8.245c0.137,4.416,3.868,7.89,8.244,7.748c1.176-0.037,2.352-0.062,3.536-0.062
	c59.904,0,109.752,48.7,111.121,108.561c0.1,4.354,3.661,7.817,7.995,7.817c0.062,0,0.124,0,0.186-0.002
	c4.417-0.101,7.917-3.764,7.815-8.181c-0.762-33.341-14.324-64.565-38.186-87.92C88.03,292.228,56.446,279.345,22.999,279.345z
	 M24.753,225.387c-1.742,0-3.637,0.033-5.791,0.101c-4.417,0.14-7.883,3.833-7.744,8.249c0.139,4.416,3.822,7.87,8.249,7.744
	c2.012-0.063,3.691-0.093,5.286-0.093c89.676,0,164.3,72.906,166.35,162.519c0.1,4.354,3.661,7.817,7.995,7.817
	c0.062,0,0.124,0,0.187-0.002c4.417-0.101,7.916-3.764,7.815-8.181c-1.094-47.826-20.547-92.615-54.776-126.117
	C118.038,243.867,72.733,225.387,24.753,225.387z"/>
<g>
</g>
<g>
</g>
<g>
</g>
<g>
</g>
<g>
</g>
<g>
</g>
<g>
</g>
<g>
</g>
<g>
</g>
<g>
</g>
<g>
</g>
<g>
</g>
<g>
</g>
<g>
</g>
<g>
</g>
</svg>
