<?xml version="1.0" encoding="iso-8859-1"?>
<!-- Generator: Adobe Illustrator 19.0.0, SVG Export Plug-In . SVG Version: 6.00 Build 0)  -->
<svg version="1.1" id="Layer_1" xmlns="http://www.w3.org/2000/svg" xmlns:xlink="http://www.w3.org/1999/xlink" x="0px" y="0px"
	 viewBox="0 0 512 512" style="enable-background:new 0 0 512 512;" xml:space="preserve">
<g>
	<g>
		<path d="M502.086,315.619c-0.67-0.038-73.325-3.97-155.581,26.071c-18.495,6.755-36.088,14.727-52.666,23.848
			c-70.67-28.524-143.039-40.607-191.763-45.714c-0.969-0.101-1.918-0.196-2.876-0.293v-11.647
			c8.823-0.636,20.785-3.249,29.473-11.882c14.525-14.443,12.146-38.461,11.826-41.152l-0.117,0.014
			c-0.537-4.69-4.228-8.578-9.118-9.175c-2.683-0.327-26.618-2.79-41.082,11.587c-0.456,0.452-0.893,0.914-1.317,1.384
			c-0.422-0.47-0.86-0.932-1.316-1.383c-14.47-14.38-38.405-11.917-41.084-11.588v0.003c-4.729,0.517-8.65,4.236-9.234,9.161
			c-0.32,2.691-2.699,26.709,11.829,41.153c8.612,8.557,20.441,11.199,29.239,11.864v9.801c-40.671-3.104-66.938-2.111-68.23-2.057
			c-5.603,0.226-10.029,4.835-10.028,10.443l0.042,175.498C0.087,507.323,4.765,512,10.535,512h490.972
			c5.77,0,10.449-4.678,10.449-10.449V326.052C511.957,320.506,507.623,315.926,502.086,315.619z M104.912,272.098
			c3.655-3.633,9.564-5.143,14.775-5.661c-0.554,5.21-2.1,11.119-5.745,14.742c-3.584,3.56-9.34,5.103-14.465,5.682
			c-0.026-0.388-0.06-0.785-0.094-1.184C100.012,280.756,101.549,275.439,104.912,272.098z M271.147,379.162
			c-8.083,5.283-15.888,10.858-23.38,16.732c-2.25,1.764-4.471,3.559-6.669,5.377c-40.344-26.82-85.253-45.718-122.296-58.359
			C163.669,348.671,217.688,359.379,271.147,379.162z M78.256,286.861c-5.127-0.58-10.881-2.122-14.461-5.68
			c-3.646-3.624-5.192-9.528-5.746-14.747c5.2,0.519,11.116,2.028,14.774,5.664c3.362,3.342,4.898,8.658,5.528,13.573
			C78.315,286.073,78.283,286.471,78.256,286.861z M20.983,491.102l-0.036-148.336c30.182,16.184,100.274,61.528,135.99,148.336
			H20.983z M80.995,357.577c-3.151-2.522-6.252-4.91-9.295-7.182c43.319,11.869,102.093,32.336,153.207,65.251
			c-19.426,18.419-36.459,39.195-50.927,62.117C149.023,420.401,110.446,381.154,80.995,357.577z M190.259,491.102
			c61.253-98.761,160.601-134.665,229.981-147.605c-5.439,2.55-11.017,5.306-16.691,8.285
			c-29.931,15.718-56.245,34.372-78.211,55.443c-25.834,24.782-45.671,52.972-59.052,83.877H190.259z M289.288,491.102
			c29.537-61.058,82.638-99.027,123.448-120.54c14.447-7.614,28.351-13.734,40.756-18.573c-2.074,2.135-4.182,4.365-6.321,6.714
			c-22.996,25.266-53.606,68.45-71.426,132.399H289.288z M491.059,491.102h-93.57c16.77-56.482,43.933-94.863,64.482-117.611
			c10.975-12.149,21.198-21.169,29.088-27.399V491.102z"/>
	</g>
</g>
<g>
	<g>
		<path d="M443.858,36.895C432.215,14.553,408.626,0,382.979,0s-49.235,14.553-60.88,36.894
			c-32.106,0.83-57.963,27.131-57.963,59.342c0,5.77,4.679,10.449,10.449,10.449h65.048l-3.723,3.723
			c-4.08,4.08-4.08,10.697,0,14.778c2.041,2.04,4.715,3.06,7.388,3.06c2.675,0,5.348-1.021,7.388-3.06l18.5-18.5h50.381
			l-3.742,3.742c-4.08,4.08-4.08,10.697,0,14.778c2.041,2.041,4.715,3.061,7.388,3.061c2.675,0,5.348-1.02,7.388-3.061l18.52-18.52
			h42.249c5.77,0,10.449-4.679,10.449-10.449C501.822,64.028,475.962,37.728,443.858,36.895z M286.483,85.787
			c4.585-16.149,19.519-28.016,37.183-28.016c1.272,0,2.624,0.07,4.02,0.21c4.679,0.461,9.103-2.257,10.791-6.651
			c6.99-18.203,24.875-30.433,44.503-30.433s37.512,12.229,44.503,30.432c1.687,4.395,6.101,7.116,10.791,6.652
			c1.395-0.14,2.746-0.21,4.018-0.21c17.666,0,32.602,11.867,37.187,28.016H286.483z"/>
	</g>
</g>
<g>
	<g>
		<path d="M114.702,96c-12.55,0-23.823,5.545-31.52,14.304C75.483,101.544,64.211,96,51.661,96c-5.77,0-10.449,4.678-10.449,10.449
			c0,5.771,4.679,10.449,10.449,10.449c11.618,0,21.071,9.453,21.071,21.071c0,5.771,4.679,10.449,10.449,10.449
			c5.77,0,10.449-4.678,10.449-10.449c0-11.618,9.453-21.071,21.071-21.071c5.77,0,10.449-4.678,10.449-10.449
			C125.151,100.678,120.472,96,114.702,96z"/>
	</g>
</g>
<g>
	<g>
		<path d="M209.133,127.52c-12.55,0-23.823,5.545-31.52,14.304c-7.698-8.759-18.97-14.304-31.52-14.304
			c-5.77,0-10.449,4.678-10.449,10.449c0,5.771,4.679,10.449,10.449,10.449c11.618,0,21.071,9.453,21.071,21.071
			c0,5.771,4.679,10.449,10.449,10.449c5.77,0,10.449-4.678,10.449-10.449c0-11.618,9.453-21.071,21.071-21.071
			c5.77,0,10.449-4.678,10.449-10.449C219.582,132.198,214.903,127.52,209.133,127.52z"/>
	</g>
</g>
<g>
	<g>
		<path d="M314.508,117.386c-4.081-4.08-10.696-4.08-14.777,0l-21.579,21.579c-4.08,4.08-4.08,10.697,0,14.778
			c2.041,2.041,4.715,3.06,7.388,3.06c2.674,0,5.348-1.02,7.388-3.06l21.579-21.579
			C318.588,128.084,318.588,121.467,314.508,117.386z"/>
	</g>
</g>
<g>
	<g>
		<path d="M267.899,163.994c-4.081-4.08-10.696-4.08-14.778,0l-4.719,4.719c-4.08,4.08-4.08,10.697,0,14.778
			c2.042,2.041,4.715,3.06,7.39,3.06c2.675,0,5.348-1.021,7.388-3.06l4.719-4.719C271.98,174.691,271.98,168.075,267.899,163.994z"
			/>
	</g>
</g>
<g>
	<g>
		<path d="M400.793,117.381c-4.081-4.08-10.696-4.08-14.777,0l-31.801,31.801c-4.08,4.08-4.08,10.697,0,14.778
			c2.041,2.041,4.715,3.06,7.388,3.06c2.675,0,5.348-1.02,7.388-3.06l31.801-31.802
			C404.873,128.078,404.873,121.462,400.793,117.381z"/>
	</g>
</g>
<g>
	<g>
		<path d="M343.754,174.42c-4.081-4.08-10.696-4.08-14.777,0l-5.395,5.395c-4.08,4.08-4.08,10.697,0,14.778
			c2.041,2.041,4.715,3.06,7.388,3.06c2.675,0,5.348-1.02,7.388-3.06l5.395-5.395C347.834,185.117,347.834,178.501,343.754,174.42z"
			/>
	</g>
</g>
<g>
</g>
<g>
</g>
<g>
</g>
<g>
</g>
<g>
</g>
<g>
</g>
<g>
</g>
<g>
</g>
<g>
</g>
<g>
</g>
<g>
</g>
<g>
</g>
<g>
</g>
<g>
</g>
<g>
</g>
</svg>
