<?xml version="1.0" encoding="iso-8859-1"?>
<!-- Generator: Adobe Illustrator 16.0.0, SVG Export Plug-In . SVG Version: 6.00 Build 0)  -->
<!DOCTYPE svg PUBLIC "-//W3C//DTD SVG 1.1//EN" "http://www.w3.org/Graphics/SVG/1.1/DTD/svg11.dtd">
<svg version="1.1" id="Capa_1" xmlns="http://www.w3.org/2000/svg" xmlns:xlink="http://www.w3.org/1999/xlink" x="0px" y="0px"
	 width="792px" height="792px" viewBox="0 0 792 792" style="enable-background:new 0 0 792 792;" xml:space="preserve">
<g>
	<g>
		<g>
			<path d="M220.146,175.828c6.832,0,12.375,5.543,12.375,12.375s-5.543,12.375-12.375,12.375h-19.568v486.75h390.844v-486.75
				h-19.594c-6.832,0-12.375-5.543-12.375-12.375s5.543-12.375,12.375-12.375h31.659h0.31c6.832,0,12.375,5.543,12.375,12.375
				v511.189v0.336c0,6.831-5.543,12.375-12.375,12.375H188.512h-0.31c-6.832,0-12.375-5.544-12.375-12.375V188.513v-0.31
				c0-6.832,5.543-12.375,12.375-12.375H220.146z"/>
			<path d="M332.062,48.005c6.806,0,12.323,5.517,12.323,12.323c0,6.806-5.517,12.323-12.323,12.323h-35.578v103.177h199.031V72.651
				l-35.578-0.025c-6.808,0-12.323-5.518-12.323-12.324c0-6.806,5.517-12.323,12.323-12.323l46.688,0.026l1.265-0.052
				c6.832,0,12.375,5.543,12.375,12.375v127.565v0.31c0,6.832-5.543,12.375-12.375,12.375H284.419h-0.31
				c-6.832,0-12.375-5.543-12.375-12.375V60.328h0.052c0-6.806,5.517-12.323,12.323-12.323H332.062z"/>
			<path d="M379.989,312.469c-6.832,0-12.375-5.543-12.375-12.375c0-6.832,5.543-12.375,12.375-12.375h159.87
				c6.832,0,12.375,5.543,12.375,12.375c0,6.832-5.543,12.375-12.375,12.375H379.989L379.989,312.469z M379.989,600.188
				c-6.832,0-12.375-5.543-12.375-12.375c0-6.831,5.543-12.375,12.375-12.375h159.87c6.832,0,12.375,5.544,12.375,12.375
				c0,6.832-5.543,12.375-12.375,12.375H379.989L379.989,600.188z M379.989,504.281c-6.832,0-12.375-5.543-12.375-12.375
				s5.543-12.375,12.375-12.375h159.87c6.832,0,12.375,5.543,12.375,12.375s-5.543,12.375-12.375,12.375H379.989L379.989,504.281z
				 M379.989,408.375c-6.832,0-12.375-5.543-12.375-12.375s5.543-12.375,12.375-12.375h159.87c6.832,0,12.375,5.569,12.375,12.375
				c0,6.832-5.543,12.375-12.375,12.375H379.989z"/>
			<path d="M256.265,299.501c-4.073-5.44-2.965-13.174,2.475-17.273c5.44-4.074,13.174-2.965,17.248,2.475l8.121,10.828
				l26.091-34.805c4.073-5.439,11.833-6.548,17.273-2.475c5.439,4.073,6.548,11.833,2.475,17.248l-35.836,47.772l-0.129,0.181
				c-0.696,0.928-1.495,1.753-2.475,2.475c-5.44,4.073-13.174,2.965-17.248-2.475L256.265,299.501z"/>
			<path d="M256.265,395.407c-4.073-5.44-2.965-13.174,2.475-17.273c5.44-4.074,13.174-2.965,17.248,2.475l8.121,10.828
				l26.091-34.805c4.073-5.439,11.833-6.548,17.273-2.475c5.439,4.073,6.548,11.833,2.475,17.273l-35.836,47.772l-0.129,0.181
				c-0.696,0.928-1.495,1.753-2.475,2.476c-5.44,4.072-13.174,2.965-17.248-2.476L256.265,395.407z"/>
			<path d="M256.265,491.312c-4.073-5.439-2.965-13.175,2.475-17.272c5.44-4.073,13.174-2.965,17.248,2.475l8.121,10.828
				l26.091-34.805c4.073-5.439,11.833-6.548,17.273-2.476c5.439,4.073,6.548,11.834,2.475,17.273l-35.836,47.772l-0.129,0.181
				c-0.696,0.928-1.495,1.753-2.475,2.475c-5.44,4.073-13.174,2.965-17.248-2.475L256.265,491.312z"/>
			<path d="M256.265,587.22c-4.073-5.439-2.965-13.175,2.475-17.272c5.44-4.073,13.174-2.965,17.248,2.475l8.121,10.828
				l26.091-34.805c4.073-5.439,11.833-6.549,17.273-2.476c5.439,4.073,6.548,11.833,2.475,17.273l-35.836,47.771l-0.129,0.182
				c-0.696,0.928-1.495,1.753-2.475,2.475c-5.44,4.073-13.174,2.965-17.248-2.475L256.265,587.22z"/>
			<path d="M220.172,95.906c6.832,0,12.375,5.543,12.375,12.375c0,6.832-5.543,12.375-12.375,12.375H140.25
				c-5.337,0-10.261,2.217-13.819,5.775s-5.775,8.482-5.775,13.819v607.406c0,5.389,2.191,10.312,5.724,13.817l0.051,0.053
				c3.506,3.531,8.431,5.724,13.819,5.724h511.5c5.414,0,10.313-2.191,13.818-5.724l0.052-0.053
				c3.532-3.506,5.724-8.43,5.724-13.817V140.25c0-5.388-2.19-10.313-5.724-13.819l-0.024-0.026l-0.026,0.026
				c-3.558-3.558-8.456-5.775-13.818-5.775h-79.922c-6.832,0-12.375-5.543-12.375-12.375c0-6.832,5.543-12.375,12.375-12.375h79.922
				c12.194,0,23.308,5.001,31.324,13.02l-0.025,0.026c8.043,8.043,13.045,19.155,13.045,31.298v607.406
				c0,12.143-4.976,23.229-13.02,31.271l-0.052,0.053c-8.044,8.044-19.13,13.02-31.272,13.02h-511.5
				c-12.143,0-23.229-4.976-31.272-13.02l-0.052-0.053c-8.045-8.043-13.021-19.129-13.021-31.271V140.25
				c0-12.194,5.001-23.306,13.02-31.324c8.019-8.018,19.13-13.02,31.324-13.02H220.172z"/>
			<path d="M396,0c9.979,0,19.078,4.099,25.652,10.647l0.052,0.052c6.548,6.574,10.647,15.649,10.647,25.652
				c0,9.978-4.101,19.078-10.647,25.652l-0.025,0.026l0.025,0.026c-6.549,6.574-15.648,10.647-25.704,10.647
				c-10.055,0-19.155-4.099-25.704-10.647c-6.574-6.549-10.647-15.675-10.647-25.704c0-10.003,4.099-19.078,10.673-25.678
				l-0.026-0.026C376.87,4.099,385.971,0,396,0L396,0z M404.25,28.153l-0.052-0.052c-2.088-2.063-4.976-3.352-8.198-3.352
				c-3.197,0-6.11,1.315-8.198,3.403l-0.026-0.026l-0.026,0.026c-2.037,2.037-3.352,4.976-3.352,8.172
				c0,3.196,1.315,6.11,3.403,8.199c2.088,2.088,5.001,3.403,8.198,3.403c3.197,0,6.11-1.315,8.198-3.403l0.026,0.025
				c2.062-2.088,3.352-5.001,3.352-8.224C407.601,33.155,406.312,30.241,404.25,28.153z"/>
		</g>
	</g>
</g>
<g>
</g>
<g>
</g>
<g>
</g>
<g>
</g>
<g>
</g>
<g>
</g>
<g>
</g>
<g>
</g>
<g>
</g>
<g>
</g>
<g>
</g>
<g>
</g>
<g>
</g>
<g>
</g>
<g>
</g>
</svg>
