<?xml version="1.0" encoding="iso-8859-1"?>
<!-- Generator: Adobe Illustrator 17.1.0, SVG Export Plug-In . SVG Version: 6.00 Build 0)  -->
<!DOCTYPE svg PUBLIC "-//W3C//DTD SVG 1.1//EN" "http://www.w3.org/Graphics/SVG/1.1/DTD/svg11.dtd">
<svg version="1.1" id="Capa_1" xmlns="http://www.w3.org/2000/svg" xmlns:xlink="http://www.w3.org/1999/xlink" x="0px" y="0px"
	 viewBox="0 0 511 511" style="enable-background:new 0 0 511 511;" xml:space="preserve">
<g>
	<path d="M503.5,43.75H439v-0.5c0-12.958-10.542-23.5-23.5-23.5S392,30.292,392,43.25v0.5h-64.5c-4.142,0-7.5,3.358-7.5,7.5
		s3.358,7.5,7.5,7.5H384v8.5c0,0.168,0.01,0.333,0.013,0.5h-48.356c-0.008,0-0.016,0-0.024,0H175.374c-0.011,0-0.022,0-0.033,0
		h-48.354c0.003-0.167,0.013-0.332,0.013-0.5v-8.5h56.5c4.142,0,7.5-3.358,7.5-7.5s-3.358-7.5-7.5-7.5H119v-0.5
		c0-12.958-10.542-23.5-23.5-23.5S72,30.292,72,43.25v0.5H7.5c-4.142,0-7.5,3.358-7.5,7.5s3.358,7.5,7.5,7.5H64v8.5
		c0,17.369,14.131,31.5,31.5,31.5c11.737,0,21.987-6.457,27.406-16h47.188l6.997,20.991c5.385,16.155,20.444,27.009,37.473,27.009
		H216v25h-0.5c-16.589,0-32.196,8.837-40.731,23.062l-12.348,20.58c-1.39,2.317-1.427,5.203-0.095,7.554
		c1.331,2.351,3.824,3.805,6.526,3.805h173.295c2.702,0,5.195-1.454,6.526-3.805c1.332-2.352,1.295-5.237-0.095-7.554l-12.348-20.58
		c-8.535-14.225-24.142-23.062-40.731-23.062H295v-25h1.436c17.029,0,32.088-10.854,37.473-27.009l6.997-20.991h47.188
		c5.419,9.543,15.669,16,27.406,16c17.369,0,31.5-14.131,31.5-31.5v-8.5h56.5c4.142,0,7.5-3.358,7.5-7.5S507.642,43.75,503.5,43.75z
		 M87,43.25c0-4.687,3.813-8.5,8.5-8.5s8.5,3.813,8.5,8.5v0.5H87V43.25z M95.5,83.75c-9.098,0-16.5-7.402-16.5-16.5v-8.5h33v8.5
		C112,76.348,104.598,83.75,95.5,83.75z M323.369,186.529l5.532,9.221H182.099l5.532-9.221c5.84-9.733,16.519-15.779,27.869-15.779
		h80C306.85,170.75,317.529,176.796,323.369,186.529z M280,155.75h-49v-25h49V155.75z M319.678,98.998
		c-3.34,10.02-12.68,16.752-23.243,16.752h-81.871c-10.563,0-19.903-6.732-23.243-16.752l-5.416-16.248h139.188L319.678,98.998z
		 M407,43.25c0-4.687,3.813-8.5,8.5-8.5s8.5,3.813,8.5,8.5v0.5h-17V43.25z M432,67.25c0,9.098-7.402,16.5-16.5,16.5
		S399,76.348,399,67.25v-8.5h33V67.25z"/>
	<path d="M255.5,315.25c-4.402,0-8,3.598-8,8c0,4.398,3.598,8,8,8c4.398,0,8-3.602,8-8C263.5,318.848,259.898,315.25,255.5,315.25z"
		/>
	<path d="M255.5,251.25c-4.402,0-8,3.598-8,8c0,4.398,3.598,8,8,8c4.398,0,8-3.602,8-8C263.5,254.848,259.898,251.25,255.5,251.25z"
		/>
	<path d="M255.5,219.25c-4.402,0-8,3.598-8,8c0,4.398,3.598,8,8,8c4.398,0,8-3.602,8-8C263.5,222.848,259.898,219.25,255.5,219.25z"
		/>
	<path d="M255.5,347.25c-4.402,0-8,3.598-8,8c0,4.398,3.598,8,8,8c4.398,0,8-3.602,8-8C263.5,350.848,259.898,347.25,255.5,347.25z"
		/>
	<path d="M255.5,283.25c-4.402,0-8,3.598-8,8c0,4.398,3.598,8,8,8c4.398,0,8-3.602,8-8C263.5,286.848,259.898,283.25,255.5,283.25z"
		/>
	<path d="M255.5,475.25c-4.402,0-8,3.598-8,8c0,4.398,3.598,8,8,8c4.398,0,8-3.602,8-8C263.5,478.848,259.898,475.25,255.5,475.25z"
		/>
	<path d="M255.5,379.25c-4.402,0-8,3.598-8,8c0,4.398,3.598,8,8,8c4.398,0,8-3.602,8-8C263.5,382.848,259.898,379.25,255.5,379.25z"
		/>
	<path d="M255.5,411.25c-4.402,0-8,3.598-8,8c0,4.398,3.598,8,8,8c4.398,0,8-3.602,8-8C263.5,414.848,259.898,411.25,255.5,411.25z"
		/>
	<path d="M255.5,443.25c-4.402,0-8,3.598-8,8c0,4.398,3.598,8,8,8c4.398,0,8-3.602,8-8C263.5,446.848,259.898,443.25,255.5,443.25z"
		/>
	<path d="M323.738,220.289c-3.758,2.238-5.121,7.121-2.879,10.961c1.438,2.559,4.16,4,6.879,4c1.359,0,2.801-0.32,4-1.043
		c3.84-2.238,5.199-7.117,2.961-10.957C332.457,219.41,327.578,218.129,323.738,220.289z"/>
	<path d="M343.738,262.93c1.359,0,2.801-0.32,4-1.043c3.84-2.238,5.121-7.117,2.961-10.957c-2.242-3.762-7.121-5.121-10.961-2.883
		c-3.84,2.16-5.121,7.121-2.879,10.883C338.297,261.57,341.02,262.93,343.738,262.93z"/>
	<path d="M430.699,389.488c-2.242-3.758-7.121-5.121-10.961-2.879c-3.84,2.16-5.121,7.121-2.879,10.879c1.438,2.559,4.16,4,6.879,4
		c1.359,0,2.801-0.32,4-1.039C431.578,398.289,432.938,393.328,430.699,389.488z"/>
	<path d="M375.82,318.367c1.359,0,2.719-0.32,3.918-1.039c3.84-2.238,5.199-7.121,2.961-10.961
		c-2.242-3.84-7.121-5.117-10.961-2.879c-3.758,2.16-5.121,7.039-2.879,10.879C370.297,316.93,373.02,318.367,375.82,318.367z"/>
	<path d="M414.699,361.809c-2.242-3.84-7.121-5.121-10.961-2.879c-3.758,2.16-5.121,7.039-2.879,10.879c1.438,2.559,4.16,4,6.879,4
		c1.359,0,2.801-0.32,4-1.039C415.578,370.527,416.938,365.648,414.699,361.809z"/>
	<path d="M398.699,334.129c-2.242-3.84-7.121-5.199-10.961-2.961c-3.84,2.242-5.121,7.121-2.879,10.961c1.438,2.559,4.16,4,6.961,4
		c1.277,0,2.719-0.398,3.918-1.121C399.578,342.848,400.938,337.887,398.699,334.129z"/>
	<path d="M446.699,417.25c-2.242-3.84-7.121-5.121-10.961-2.961c-3.758,2.238-5.121,7.121-2.879,10.961c1.438,2.559,4.16,4,6.961,4
		c1.277,0,2.719-0.32,3.918-1.043C447.578,425.969,448.938,421.09,446.699,417.25z"/>
	<path d="M451.738,442.047c-3.84,2.16-5.121,7.043-2.879,10.883c1.438,2.559,4.16,4,6.961,4c1.277,0,2.719-0.32,3.918-1.043
		c3.84-2.238,5.121-7.117,2.961-10.957C460.457,441.09,455.578,439.809,451.738,442.047z"/>
	<path d="M355.738,275.73c-3.758,2.238-5.121,7.117-2.879,10.957c1.438,2.563,4.16,4,6.879,4c1.359,0,2.719-0.398,4-1.117
		c3.84-2.16,5.199-7.043,2.961-10.883C364.457,274.848,359.578,273.57,355.738,275.73z"/>
	<path d="M312.938,255.25c-1.359-4.16-5.84-6.48-10.078-5.121c-4.16,1.359-6.48,5.84-5.199,10c1.117,3.441,4.238,5.602,7.68,5.602
		c0.797,0,1.598-0.16,2.398-0.402C311.98,263.969,314.297,259.488,312.938,255.25z"/>
	<path d="M352.219,377.09c-1.359-4.242-5.922-6.563-10.082-5.203c-4.238,1.363-6.559,5.922-5.199,10.082
		c1.121,3.441,4.242,5.602,7.602,5.602c0.879,0,1.68-0.16,2.48-0.402C351.258,385.809,353.578,381.328,352.219,377.09z"/>
	<path d="M322.777,285.73c-1.359-4.242-5.918-6.563-10.078-5.203c-4.242,1.359-6.563,5.84-5.199,10.082
		c1.117,3.359,4.238,5.598,7.598,5.598c0.883,0,1.68-0.16,2.48-0.398C321.82,294.449,324.137,289.887,322.777,285.73z"/>
	<path d="M342.379,346.609c-1.359-4.16-5.84-6.48-10.082-5.121c-4.16,1.359-6.477,5.84-5.117,10
		c1.039,3.441,4.238,5.602,7.598,5.602c0.801,0,1.602-0.16,2.48-0.402C341.418,355.328,343.738,350.848,342.379,346.609z"/>
	<path d="M332.539,316.207c-1.359-4.238-5.84-6.559-10.082-5.199c-4.16,1.359-6.477,5.84-5.117,10.082
		c1.117,3.359,4.238,5.52,7.598,5.52c0.801,0,1.602-0.082,2.48-0.402C331.578,324.848,333.898,320.367,332.539,316.207z"/>
	<path d="M371.578,463.25c-4.238,1.359-6.559,5.918-5.199,10.078c1.121,3.441,4.238,5.602,7.68,5.602
		c0.801,0,1.602-0.16,2.398-0.402c4.242-1.359,6.563-5.84,5.203-10.078C380.297,464.289,375.738,461.887,371.578,463.25z"/>
	<path d="M361.98,407.57c-1.363-4.242-5.844-6.563-10.082-5.203c-4.16,1.363-6.48,5.84-5.121,10.082
		c1.121,3.359,4.242,5.52,7.602,5.52c0.801,0,1.68-0.082,2.48-0.398C361.02,416.207,363.34,411.73,361.98,407.57z"/>
	<path d="M303.098,224.77c-1.359-4.16-5.84-6.48-10.078-5.121c-4.16,1.359-6.48,5.84-5.121,10.082
		c1.121,3.359,4.238,5.52,7.602,5.52c0.797,0,1.598-0.16,2.48-0.402C302.137,233.488,304.457,229.008,303.098,224.77z"/>
	<path d="M371.82,437.969c-1.363-4.16-5.84-6.48-10.082-5.121c-4.16,1.359-6.48,5.84-5.121,10.082
		c1.043,3.359,4.242,5.52,7.602,5.52c0.801,0,1.602-0.16,2.398-0.402C370.859,446.688,373.18,442.207,371.82,437.969z"/>
	<path d="M159.098,402.367c-4.238-1.359-8.719,0.961-10.078,5.203c-1.359,4.16,0.961,8.637,5.117,10
		c0.801,0.316,1.684,0.398,2.48,0.398c3.363,0,6.48-2.16,7.602-5.52C165.578,408.207,163.258,403.73,159.098,402.367z"/>
	<path d="M149.258,432.848c-4.238-1.359-8.719,0.961-10.078,5.121c-1.359,4.238,0.957,8.719,5.117,10.078
		c0.883,0.242,1.684,0.402,2.48,0.402c3.359,0,6.563-2.16,7.602-5.52C155.738,438.688,153.418,434.207,149.258,432.848z"/>
	<path d="M139.418,463.25c-4.16-1.363-8.719,1.039-10.078,5.199c-1.359,4.238,0.957,8.719,5.199,10.078
		c0.801,0.242,1.598,0.402,2.398,0.402c3.441,0,6.563-2.16,7.68-5.602C145.98,469.168,143.66,464.609,139.418,463.25z"/>
	<path d="M178.699,341.488c-4.242-1.359-8.719,0.961-10.082,5.121c-1.359,4.238,0.961,8.719,5.121,10.078
		c0.879,0.242,1.68,0.402,2.48,0.402c3.359,0,6.559-2.16,7.602-5.602C185.18,347.328,182.859,342.848,178.699,341.488z"/>
	<path d="M168.859,371.887c-4.16-1.359-8.723,0.961-10.082,5.203c-1.359,4.238,0.961,8.719,5.203,10.078
		c0.797,0.242,1.598,0.402,2.398,0.402c3.441,0,6.559-2.16,7.68-5.602C175.418,377.809,173.098,373.25,168.859,371.887z"/>
	<path d="M198.297,280.527c-4.16-1.359-8.719,0.961-10.078,5.203c-1.359,4.156,0.961,8.719,5.199,10.078
		c0.801,0.238,1.602,0.398,2.48,0.398c3.359,0,6.48-2.238,7.602-5.598C204.859,286.367,202.539,281.887,198.297,280.527z"/>
	<path d="M208.137,250.129c-4.238-1.359-8.719,0.961-10.078,5.121c-1.359,4.238,0.961,8.719,5.199,10.078
		c0.801,0.242,1.602,0.402,2.402,0.402c3.438,0,6.559-2.16,7.598-5.602C214.617,255.969,212.297,251.488,208.137,250.129z"/>
	<path d="M217.98,219.648c-4.242-1.359-8.723,0.961-10.082,5.121c-1.359,4.238,0.961,8.719,5.121,10.078
		c0.879,0.242,1.68,0.402,2.48,0.402c3.359,0,6.559-2.16,7.598-5.52C224.457,225.488,222.137,221.008,217.98,219.648z"/>
	<path d="M188.539,311.008c-4.242-1.359-8.719,0.961-10.082,5.199c-1.359,4.16,0.961,8.641,5.121,10
		c0.801,0.32,1.68,0.402,2.48,0.402c3.359,0,6.48-2.16,7.602-5.52C195.02,316.848,192.699,312.367,188.539,311.008z"/>
	<path d="M90.859,386.609c-3.84-2.242-8.723-0.879-10.961,2.879c-2.238,3.84-0.879,8.801,2.879,10.961
		c1.281,0.719,2.641,1.039,4,1.039c2.801,0,5.52-1.441,6.961-4C95.98,393.73,94.617,388.77,90.859,386.609z"/>
	<path d="M178.859,234.207c1.199,0.723,2.559,1.043,3.918,1.043c2.801,0,5.52-1.441,6.961-4c2.242-3.84,0.879-8.723-2.879-10.961
		c-3.84-2.16-8.801-0.879-10.961,2.961C173.66,227.09,175.02,231.969,178.859,234.207z"/>
	<path d="M74.777,414.289c-3.758-2.16-8.719-0.879-10.879,2.961c-2.238,3.84-0.879,8.719,2.961,10.957
		c1.199,0.723,2.559,1.043,3.918,1.043c2.801,0,5.52-1.441,6.961-4C79.98,421.41,78.617,416.527,74.777,414.289z"/>
	<path d="M106.777,358.93c-3.758-2.242-8.719-0.961-10.879,2.879c-2.238,3.84-0.879,8.719,2.961,10.961
		c1.199,0.719,2.641,1.039,4,1.039c2.719,0,5.438-1.441,6.879-4C111.98,365.969,110.617,361.09,106.777,358.93z"/>
	<path d="M58.859,442.047c-3.84-2.238-8.723-0.957-10.961,2.883s-0.879,8.719,2.879,10.957c1.281,0.723,2.641,1.043,4,1.043
		c2.801,0,5.52-1.441,6.961-4C63.98,449.09,62.617,444.207,58.859,442.047z"/>
	<path d="M162.859,261.887c1.199,0.723,2.641,1.043,4,1.043c2.719,0,5.438-1.359,6.879-4c2.242-3.762,0.879-8.723-2.961-10.883
		c-3.758-2.238-8.641-0.879-10.879,2.883C157.66,254.77,159.02,259.648,162.859,261.887z"/>
	<path d="M154.859,275.73c-3.84-2.16-8.801-0.883-10.961,2.957c-2.238,3.84-0.879,8.723,2.961,10.883
		c1.199,0.719,2.559,1.117,3.918,1.117c2.801,0,5.52-1.438,6.961-4C159.98,282.848,158.617,277.969,154.859,275.73z"/>
	<path d="M130.859,317.328c1.199,0.719,2.559,1.039,3.918,1.039c2.801,0,5.52-1.438,6.961-4c2.242-3.84,0.879-8.719-2.961-10.879
		c-3.758-2.238-8.641-0.961-10.879,2.879S127.02,315.09,130.859,317.328z"/>
	<path d="M122.859,331.168c-3.84-2.238-8.723-0.879-10.961,2.961c-2.238,3.758-0.879,8.719,2.879,10.879
		c1.281,0.723,2.641,1.121,4,1.121c2.801,0,5.52-1.441,6.961-4C127.98,338.289,126.617,333.41,122.859,331.168z"/>
</g>
<g>
</g>
<g>
</g>
<g>
</g>
<g>
</g>
<g>
</g>
<g>
</g>
<g>
</g>
<g>
</g>
<g>
</g>
<g>
</g>
<g>
</g>
<g>
</g>
<g>
</g>
<g>
</g>
<g>
</g>
</svg>
